<svg width="30" height="39" viewBox="0 0 30 39" fill="none" xmlns="http://www.w3.org/2000/svg">
<path d="M21.4057 22.2063L18.2608 21.5692V19.2706C19.8906 18.3306 21.0341 16.7361 21.3985 14.895C22.8042 14.61 23.7119 13.2429 23.4259 11.8418C23.33 11.371 23.1041 10.9358 22.7737 10.5856C23.2184 10.2192 23.4766 9.67506 23.4784 9.10007V7.14996C23.4734 3.20328 20.2644 0.00491438 16.3046 0H13.6958C9.73556 0.00491438 6.52655 3.20328 6.52162 7.14996V9.10007C6.52386 9.67506 6.78161 10.2192 7.22627 10.5856C6.2455 11.6323 6.30243 13.2737 7.35267 14.2508C7.70186 14.5756 8.13397 14.7985 8.60149 14.895C8.96592 16.7357 10.1098 18.3306 11.7392 19.2706V21.5669L8.59432 22.2063C3.55333 23.3468 -0.0183075 27.8216 7.0597e-05 32.9741V38.3504C7.0597e-05 38.7092 0.292328 39 0.652271 39H29.3477C29.7081 39 29.9999 38.7092 29.9999 38.3504V32.9741C30.0188 27.822 26.4471 23.3468 21.4057 22.2063ZM12.235 22.7951L14.0871 24.1805L12.9724 25.6611L10.4581 23.1552L12.235 22.7951ZM17.7668 22.7951L19.5468 23.1503L17.0267 25.6615L15.9129 24.1805L17.7668 22.7951ZM13.0181 27.7001L12.4286 37.7004H12.2915L10.1148 24.65L13.0181 27.7001ZM19.8857 24.65L17.7085 37.7004H17.5718L16.9886 27.6902L19.8857 24.65ZM21.7912 13.2684C21.7105 13.347 21.6199 13.4144 21.5218 13.4689V11.2307C22.143 11.585 22.3587 12.3739 22.0032 12.9931C21.9449 13.0941 21.8741 13.1866 21.7912 13.2684ZM7.82602 12.3503C7.82737 11.8879 8.07614 11.4612 8.47822 11.2307V13.4694C8.07211 13.2429 7.82244 12.814 7.82602 12.3503ZM9.78262 13.6503V11.0502H12.3914C13.7227 10.9041 14.9612 10.2987 15.8918 9.33864C16.2351 8.99553 16.5341 8.61042 16.782 8.19315C17.6498 9.1796 18.9013 9.74654 20.2178 9.75011V13.6499C20.2178 16.5217 17.8816 18.8502 15.0002 18.8502C12.1189 18.8502 9.78262 16.5221 9.78262 13.6503ZM15.0002 20.1503C15.6636 20.1503 16.3234 20.0493 16.9564 19.8505V21.7751L15.0002 23.2378L13.0436 21.7751V19.8505C13.6765 20.0493 14.3364 20.1503 15.0002 20.1503ZM13.7353 37.7004L14.2283 29.3084L14.478 29.6404C14.6941 29.9276 15.1033 29.9857 15.3911 29.7704C15.4404 29.7333 15.4848 29.6895 15.5215 29.6404L15.7757 29.3017L16.2652 37.7004H13.7353Z" fill="#044B8D"/>
</svg>
