<svg width="7" height="12" viewBox="0 0 7 12" fill="none" xmlns="http://www.w3.org/2000/svg">
<path d="M0.536279 0.191807L0.177964 0.584883C0.066063 0.708591 0.00441562 0.873178 0.00441562 1.04908C0.00441563 1.22489 0.066063 1.38967 0.177965 1.51338L4.23733 5.99732L0.173461 10.4864C0.0615591 10.6099 -5.35586e-08 10.7747 -4.58739e-08 10.9505C-3.81891e-08 11.1263 0.0615591 11.2912 0.173461 11.4148L0.529567 11.808C0.761142 12.064 1.13836 12.064 1.36993 11.808L6.22586 6.46317C6.33767 6.33966 6.41645 6.17507 6.41645 5.99771L6.41645 5.99566C6.41645 5.81975 6.33758 5.65517 6.22586 5.53165L1.38309 0.191807C1.27128 0.068098 1.11778 0.000194501 0.958625 -4.19029e-08C0.799384 -3.49422e-08 0.648004 0.068098 0.536279 0.191807Z" fill="white"/>
</svg>
