<svg width="12" height="7" viewBox="0 0 12 7" fill="none" xmlns="http://www.w3.org/2000/svg">
<path d="M11.8082 0.536279L11.4151 0.177965C11.2914 0.0660635 11.1268 0.0044161 10.9509 0.0044161C10.7751 0.0044161 10.6103 0.0660635 10.4866 0.177965L6.00268 4.23733L1.51357 0.173461C1.39006 0.0615591 1.22528 0 1.04947 0C0.873666 0 0.708786 0.0615591 0.585176 0.173461L0.192002 0.529567C-0.0640005 0.761142 -0.0640005 1.13836 0.192002 1.36993L5.53683 6.22586C5.66034 6.33767 5.82493 6.41645 6.00229 6.41645H6.00434C6.18025 6.41645 6.34483 6.33758 6.46835 6.22586L11.8082 1.38309C11.9319 1.27128 11.9998 1.11778 12 0.958626C12 0.799385 11.9319 0.648004 11.8082 0.536279Z" fill="#004184"/>
</svg>
