<svg width="20" height="20" viewBox="0 0 20 20" fill="none" xmlns="http://www.w3.org/2000/svg">
<rect width="20" height="20" fill="#B5BFC2"/>
<path d="M12.4637 15.8082L12.822 15.4151C12.9339 15.2914 12.9956 15.1268 12.9956 14.9509C12.9956 14.7751 12.9339 14.6103 12.822 14.4866L8.76267 10.0027L12.8265 5.51357C12.9384 5.39006 13 5.22528 13 5.04947C13 4.87367 12.9384 4.70879 12.8265 4.58518L12.4704 4.192C12.2389 3.936 11.8616 3.936 11.6301 4.192L6.77415 9.53683C6.66233 9.66034 6.58355 9.82493 6.58355 10.0023L6.58355 10.0043C6.58355 10.1802 6.66242 10.3448 6.77415 10.4683L11.6169 15.8082C11.7287 15.9319 11.8822 15.9998 12.0414 16C12.2006 16 12.352 15.9319 12.4637 15.8082Z" fill="white"/>
</svg>
