<svg width="30" height="40" viewBox="0 0 30 40" fill="none" xmlns="http://www.w3.org/2000/svg">
<g clip-path="url(#clip0)">
<path d="M30 39.3489C25.077 39.3489 20.1541 39.3489 15.0765 39.3489C17.6297 34.5042 20.1405 29.7386 22.6938 24.8973C26.148 26.5117 29.0327 28.5713 29.8793 32.6028C29.9031 32.7162 29.9592 32.8228 30.0017 32.9328C30 35.0715 30 37.2102 30 39.3489ZM24.9173 34.2171C23.7443 34.2171 22.6547 34.2171 21.5038 34.2171C21.5225 34.487 21.5395 34.7036 21.5548 34.9151C22.7193 34.9151 23.8072 34.9151 24.9173 34.9151C24.9173 34.6641 24.9173 34.4629 24.9173 34.2171Z" fill="#044B8D"/>
<path d="M14.9286 11.5375C12.6592 11.4653 10.3048 11.2332 8.09496 10.2636C7.54929 10.0246 7.05122 9.64296 6.58545 9.25958C6.39676 9.10485 6.33386 8.7782 6.24886 8.51689C6.07717 7.99253 6.04487 7.38394 5.75419 6.94383C3.89449 4.12263 5.11842 2.63209 7.3691 1.56275C9.75238 0.431525 12.3056 0.108316 14.9031 0.0911244C17.3799 0.0739325 19.8226 0.343846 22.1413 1.29284C22.7873 1.5576 23.423 1.89112 23.9908 2.29685C25.3575 3.27679 25.6193 4.40458 24.9564 5.96732C24.5722 6.87162 24.3563 7.88422 23.8123 8.67161C23.3618 9.32663 22.6122 9.87849 21.8778 10.2034C19.7087 11.1627 17.3952 11.5031 14.9286 11.5375Z" fill="#044B8D"/>
<path d="M7.18039 10.6607C12.5181 12.7581 17.6943 12.7598 22.9148 10.6384C22.9335 10.8567 22.9624 11.0321 22.9624 11.2057C22.9624 12.6068 22.9318 14.008 22.9556 15.4074C23.01 18.5759 21.5276 20.8676 18.9251 22.42C15.6391 24.3833 13.8236 24.4985 10.0549 21.4607C8.03544 19.8343 7.024 17.663 7.16849 14.9776C7.24329 13.5833 7.18039 12.1822 7.18039 10.6607Z" fill="#044B8D"/>
<path d="M0.0832825 39.3197C0.161478 36.9506 0.0594838 34.5884 0.365467 32.283C0.659552 30.0584 2.07048 28.3461 3.84858 27.0429C4.96712 26.2229 6.19956 25.5661 7.46259 24.7856C10.0057 29.6991 12.4739 34.4715 14.983 39.3214C9.99885 39.3197 5.11501 39.3197 0.0832825 39.3197Z" fill="#044B8D"/>
<path d="M14.0514 27.7185C14.1874 27.6532 14.2078 27.636 14.2282 27.6343C15.7751 27.5157 15.77 27.5157 16.0352 29.0303C16.3004 30.5483 16.5792 32.0629 16.8359 33.5827C16.8733 33.8045 16.8818 34.0761 16.7883 34.2652C16.2579 35.3432 15.6919 36.4056 15.0714 37.6039C14.4186 36.3884 13.8203 35.2796 13.2287 34.1655C13.1879 34.0882 13.176 33.9799 13.1879 33.8905C13.4735 31.824 13.7642 29.7592 14.0514 27.7185Z" fill="#044B8D"/>
<path d="M15.8517 24.459C16.7254 24.0928 17.5397 23.7541 18.3862 23.3999C18.8503 24.9163 17.606 25.7329 17.1351 27.0377C16.6608 26.0836 16.2698 25.2979 15.8517 24.459Z" fill="#044B8D"/>
<path d="M12.6014 26.9879C12.0829 25.7655 10.9134 24.9421 11.3027 23.3999C12.1339 23.7421 12.9567 24.0807 13.8576 24.4521C13.4395 25.2945 13.0485 26.0853 12.6014 26.9879Z" fill="#044B8D"/>
<path d="M14.8351 26.9535C14.0497 26.9535 13.6826 26.6543 13.6945 26.0234C13.7047 25.5386 14.3285 24.9214 14.813 24.918C15.3791 24.9128 16.0369 25.5489 16.0165 26.0801C15.9927 26.7455 15.7106 26.9535 14.8351 26.9535Z" fill="#044B8D"/>
<path d="M24.9173 34.2171C24.9173 34.4612 24.9173 34.6641 24.9173 34.9151C23.8072 34.9151 22.7176 34.9151 21.5548 34.9151C21.5395 34.7036 21.5242 34.487 21.5038 34.2171C22.6547 34.2171 23.7443 34.2171 24.9173 34.2171Z" fill="#044B8D"/>
</g>
<defs>
<clipPath id="clip0">
<rect width="30" height="39.6429" fill="white"/>
</clipPath>
</defs>
</svg>
