<svg width="30" height="39" viewBox="0 0 30 39" fill="none" xmlns="http://www.w3.org/2000/svg">
<g clip-path="url(#clip0)">
<path d="M28.0725 32.2799C27.7566 31.7846 27.476 31.2605 27.1184 30.7971C25.0594 28.1213 20.8804 27.9684 18.6306 30.4801C18.4413 30.6919 18.2585 30.7875 17.9699 30.7859C15.9942 30.7732 14.0202 30.7875 12.0446 30.7684C11.8345 30.7668 11.5651 30.6553 11.4272 30.504C8.87751 27.7056 4.28963 28.2089 2.4022 31.509C2.25307 31.7686 2.11676 32.0362 1.97565 32.2958C0.344794 31.6078 -0.336733 30.2141 0.157173 28.5848C0.527603 27.3615 1.02151 26.1925 1.74954 25.1253C2.71971 23.6999 4.03626 22.8207 5.75852 22.6025C6.78803 22.4719 7.82715 22.405 8.86147 22.3205C8.96731 22.3126 9.13569 22.3413 9.17898 22.4113C9.78514 23.3988 10.7713 23.8034 11.8153 24.0805C14.1758 24.7096 16.5282 24.6794 18.847 23.8719C19.636 23.5963 20.3496 23.1981 20.8114 22.4559C20.8612 22.3763 21.0103 22.3078 21.1049 22.3174C22.3653 22.4448 23.6322 22.5324 24.8798 22.7394C26.1706 22.9529 27.1681 23.7046 27.9587 24.7272C28.9898 26.0603 29.7146 27.5527 29.9615 29.2091C30.1812 30.6808 29.4789 31.6954 28.0725 32.2799Z" fill="#044B8D"/>
<path d="M22.8993 8.37779C23.1831 8.43831 23.4301 8.45743 23.6514 8.54503C24.1164 8.72819 24.4163 9.26494 24.3441 9.72046C24.2576 10.2684 23.8486 10.6634 23.3066 10.7127C23.1543 10.7271 23.0003 10.7255 22.848 10.7255C17.6107 10.7271 12.3733 10.7303 7.13599 10.7191C6.8249 10.7191 6.48494 10.6729 6.21233 10.5407C5.78417 10.3321 5.59334 9.80806 5.69436 9.37484C5.81624 8.85083 6.17384 8.51317 6.6934 8.4415C6.81367 8.42557 6.93555 8.42716 7.10553 8.4192C7.26428 5.33886 8.65941 3.0071 11.4481 1.45577C11.6277 2.45123 11.796 3.38617 11.9628 4.31951C12.0109 4.58868 12.0462 4.85944 12.1087 5.12384C12.1953 5.49176 12.4423 5.67174 12.8191 5.60006C13.1767 5.53317 13.3307 5.27674 13.2745 4.92952C13.1158 3.94203 12.941 2.95613 12.771 1.97023C12.7325 1.74565 12.6828 1.52426 12.6411 1.29969C12.5193 0.621183 12.8512 0.0908036 13.5536 0.0446143C14.5141 -0.0175022 15.4827 -0.0190949 16.4432 0.0430216C17.1841 0.0908036 17.5 0.629147 17.3589 1.37455C17.152 2.47672 16.9484 3.58048 16.7559 4.68584C16.6918 5.05694 16.6742 5.44079 17.1328 5.59369C17.5337 5.72748 17.856 5.46787 17.9442 4.96138C18.1382 3.85602 18.3259 2.75067 18.5199 1.64531C18.5263 1.6039 18.5536 1.56567 18.5969 1.47011C21.3246 2.99754 22.7373 5.29585 22.8993 8.37779Z" fill="#044B8D"/>
<path d="M3.94002 32.5093C4.50609 31.2223 6.18826 30.3017 7.56253 30.4706C8.8406 30.6282 9.82841 31.2176 10.5372 32.2927C10.6238 32.4233 10.8499 32.5316 11.0103 32.5332C13.6738 32.5475 16.339 32.5347 19.0026 32.5539C19.3714 32.557 19.4628 32.3181 19.6103 32.1047C21.1594 29.8621 24.5991 29.9529 25.9798 32.2751C26.0167 32.3372 26.0439 32.4057 26.1065 32.5347C25.2181 32.5347 24.3842 32.5523 23.5503 32.5252C23.2248 32.514 23.0917 32.6701 22.9025 32.8963C22.1472 33.801 22.0959 34.6594 22.88 35.5816C23.0837 35.8206 23.2296 35.9862 23.568 35.9766C24.3922 35.9543 25.2181 35.9687 26.1193 35.9687C25.5725 36.9928 24.7883 37.6124 23.746 37.9054C22.1456 38.3546 20.4763 37.7207 19.5494 36.3079C19.3842 36.0547 19.219 35.9719 18.9272 35.9735C16.3085 35.9846 13.6899 35.9846 11.0728 35.9735C10.7761 35.9719 10.6206 36.0642 10.4554 36.3143C8.93842 38.6062 5.55163 38.6062 4.08274 36.3239C4.02661 36.2378 3.98332 36.1439 3.8855 35.9655C4.6921 35.9655 5.43457 35.9336 6.17062 35.9766C6.69178 36.0069 6.94676 35.8046 7.25465 35.3841C7.84316 34.5782 7.82552 33.9188 7.24823 33.1209C6.94676 32.7036 6.6998 32.4854 6.17222 32.522C5.47145 32.5698 4.76427 32.5332 4.06029 32.53C4.03463 32.5316 4.00416 32.5204 3.94002 32.5093Z" fill="#044B8D"/>
<path d="M6.55546 12.1971C7.03654 12.1971 7.49036 12.1971 7.94418 12.1971C8.04039 14.4732 8.23282 14.9621 9.07631 15.0386C9.58305 16.488 10.3015 17.837 11.3951 18.9519C12.3541 19.9283 13.4413 20.6768 14.9022 20.6737C16.0327 20.6721 16.982 20.2118 17.8095 19.511C19.1164 18.4024 19.9823 16.9833 20.5837 15.3985C20.6655 15.1835 20.7168 15.0226 21.0215 14.9876C21.2043 14.9653 21.4127 14.7089 21.5122 14.5082C21.873 13.7867 22.0173 13.0206 21.8217 12.2003C22.2803 12.2003 22.7165 12.2003 23.2152 12.2003C23.1591 13.4522 23.0693 14.6452 22.0381 15.5323C21.9211 15.6327 21.8537 15.7999 21.7912 15.948C21.1177 17.528 20.2517 18.9854 18.9993 20.1831C17.9682 21.169 16.8024 21.9112 15.3255 22.0577C14.1805 22.1708 13.1446 21.8602 12.1905 21.2709C10.7408 20.3774 9.6953 19.1016 8.84539 17.6554C8.66098 17.3417 8.49581 17.0167 8.33385 16.6902C8.07727 16.1742 7.89607 15.6518 7.39895 15.2424C6.76553 14.7216 6.41595 13.1432 6.55546 12.1971Z" fill="#044B8D"/>
</g>
<defs>
<clipPath id="clip0">
<rect width="30" height="38.0488" fill="white"/>
</clipPath>
</defs>
</svg>
