<svg width="20" height="20" viewBox="0 0 20 20" fill="none" xmlns="http://www.w3.org/2000/svg">
<rect x="20" y="20" width="20" height="20" transform="rotate(180 20 20)" fill="#B5BFC2"/>
<path d="M7.53628 4.19181L7.17796 4.58488C7.06606 4.70859 7.00442 4.87318 7.00442 5.04908C7.00442 5.22489 7.06606 5.38967 7.17796 5.51338L11.2373 9.99732L7.17346 14.4864C7.06156 14.6099 7 14.7747 7 14.9505C7 15.1263 7.06156 15.2912 7.17346 15.4148L7.52957 15.808C7.76114 16.064 8.13836 16.064 8.36993 15.808L13.2259 10.4632C13.3377 10.3397 13.4165 10.1751 13.4165 9.99771L13.4165 9.99566C13.4165 9.81975 13.3376 9.65517 13.2259 9.53165L8.38309 4.19181C8.27128 4.0681 8.11778 4.00019 7.95863 4C7.79938 4 7.648 4.0681 7.53628 4.19181Z" fill="white"/>
</svg>
