<svg width="18" height="20" viewBox="0 0 18 20" fill="none" xmlns="http://www.w3.org/2000/svg">
<path d="M16.8758 14.5508C16.626 13.9872 16.5 13.3931 16.5 12.7858V8.40041C16.5 5.35836 14.2635 2.80741 11.2118 1.94677C11.0304 0.987171 10.111 0.25293 9.00003 0.25293C7.88901 0.25293 6.96966 0.987171 6.78829 1.94677C3.73656 2.80741 1.50003 5.35836 1.50003 8.40041V12.7858C1.50003 13.3931 1.37404 13.9872 1.12429 14.5508L0.0534518 16.9748C-0.0388574 17.1844 -0.0102714 17.4204 0.128869 17.6074C0.268768 17.7944 0.500921 17.9058 0.749967 17.9058H6.45126C6.98303 18.724 7.93151 19.2637 9.00003 19.2637C10.0685 19.2637 11.017 18.724 11.5488 17.9058H17.25C17.4991 17.9058 17.7312 17.7944 17.8711 17.6074C18.0103 17.4204 18.0389 17.1844 17.9465 16.9748C17.9466 16.9748 16.8758 14.5508 16.8758 14.5508ZM1.85741 16.5478L2.51732 15.0547C2.8374 14.3306 2.99998 13.5668 2.99998 12.7857V8.40036C2.99998 5.40473 5.69162 2.96871 9.00003 2.96871C12.3084 2.96871 15 5.40473 15 8.40036V12.7857C15 13.5668 15.1626 14.3306 15.4827 15.0547L16.1426 16.5478H1.85741Z" fill="#044B8D"/>
</svg>
