<svg width="18" height="17" viewBox="0 0 18 17" fill="none" xmlns="http://www.w3.org/2000/svg">
<path d="M17.4727 4.27866H13.4648V1.44614C13.4648 1.18249 13.2287 0.96875 12.9375 0.96875H0.527344C0.236109 0.96875 0 1.18249 0 1.44614V13.7946C0 15.1108 1.18283 16.1816 2.63672 16.1816H15.3633C16.8172 16.1816 18 15.1108 18 13.7946V4.75605C18 4.4924 17.7639 4.27866 17.4727 4.27866ZM2.63672 15.2268C1.76439 15.2268 1.05469 14.5843 1.05469 13.7946V1.92353H12.4102C12.4102 14.5415 12.4035 13.84 12.4222 14.0199C12.4681 14.4624 12.6504 14.8798 12.9387 15.2268H2.63672ZM16.9453 13.7946C16.9453 14.5843 16.2356 15.2268 15.3633 15.2268C15.2449 15.2268 15.1631 15.2268 15.0469 15.2268C14.1745 15.2268 13.4648 14.5843 13.4648 13.7946V5.23344H16.9453V13.7946Z" fill="#044B8D"/>
<path d="M10.6875 3.26025H2.8125C2.52127 3.26025 2.28516 3.474 2.28516 3.73764C2.28516 4.00129 2.52127 4.21503 2.8125 4.21503H10.6875C10.9787 4.21503 11.2148 4.00129 11.2148 3.73764C11.2148 3.474 10.9787 3.26025 10.6875 3.26025Z" fill="#044B8D"/>
<path d="M10.6875 5.29712H2.8125C2.52127 5.29712 2.28516 5.51086 2.28516 5.77451C2.28516 6.03816 2.52127 6.2519 2.8125 6.2519H10.6875C10.9787 6.2519 11.2148 6.03816 11.2148 5.77451C11.2148 5.51086 10.9787 5.29712 10.6875 5.29712Z" fill="#044B8D"/>
<path d="M10.6875 12.9353H2.8125C2.52127 12.9353 2.28516 13.149 2.28516 13.4127C2.28516 13.6763 2.52127 13.8901 2.8125 13.8901H10.6875C10.9787 13.8901 11.2148 13.6763 11.2148 13.4127C11.2148 13.149 10.9787 12.9353 10.6875 12.9353Z" fill="#044B8D"/>
<path d="M10.6875 7.33398H6.75C6.45877 7.33398 6.22266 7.54773 6.22266 7.81137V11.3759C6.22266 11.6395 6.45877 11.8533 6.75 11.8533H10.6875C10.9787 11.8533 11.2148 11.6395 11.2148 11.3759V7.81137C11.2148 7.54773 10.9787 7.33398 10.6875 7.33398ZM10.1602 10.8985H7.27734V8.28876H10.1602V10.8985Z" fill="#044B8D"/>
<path d="M2.8125 9.05256H4.5C4.79123 9.05256 5.02734 8.83882 5.02734 8.57517C5.02734 8.31152 4.79123 8.09778 4.5 8.09778H2.8125C2.52127 8.09778 2.28516 8.31152 2.28516 8.57517C2.28516 8.83882 2.52127 9.05256 2.8125 9.05256Z" fill="#044B8D"/>
<path d="M2.8125 11.0894H4.5C4.79123 11.0894 5.02734 10.8757 5.02734 10.612C5.02734 10.3484 4.79123 10.1346 4.5 10.1346H2.8125C2.52127 10.1346 2.28516 10.3484 2.28516 10.612C2.28516 10.8757 2.52127 11.0894 2.8125 11.0894Z" fill="#044B8D"/>
</svg>
