<svg width="43" height="43" viewBox="0 0 43 43" fill="none" xmlns="http://www.w3.org/2000/svg">
<g filter="url(#filter0_d)">
<path d="M21.5 34.4832C30.8796 34.4832 38.4832 26.8796 38.4832 17.5C38.4832 8.12042 30.8796 0.516785 21.5 0.516785C12.1204 0.516785 4.51678 8.12042 4.51678 17.5C4.51678 26.8796 12.1204 34.4832 21.5 34.4832Z" fill="#ECF4FF"/>
<path d="M31.6523 3.88416C33.7673 6.71615 35.0197 10.23 35.0197 14.0365C35.0197 23.4161 27.4161 31.0197 18.0365 31.0197C14.23 31.0197 10.7161 29.7673 7.88416 27.6523C10.9808 31.7987 15.9268 34.4832 21.5 34.4832C30.8796 34.4832 38.4832 26.8796 38.4832 17.5C38.4832 11.9268 35.7986 6.98083 31.6523 3.88416Z" fill="#DDEAFB"/>
<path d="M34.4491 28.4873C33.0781 25.299 29.9092 23.0662 26.2184 23.0662H16.7815C13.0907 23.0662 9.92187 25.299 8.55078 28.4873C11.666 32.1551 16.3107 34.4832 21.5 34.4832C26.6892 34.4832 31.3339 32.1551 34.4491 28.4873Z" fill="#524798"/>
<path d="M34.4491 28.4873C33.7788 26.9284 32.6779 25.599 31.2971 24.6463C28.1848 28.5312 23.4016 31.0197 18.0365 31.0197C14.5774 31.0197 11.3601 29.9853 8.67636 28.2093C8.63309 28.3012 8.59098 28.3938 8.55078 28.4873C11.666 32.1551 16.3107 34.4832 21.5 34.4832C26.6892 34.4832 31.3339 32.1551 34.4491 28.4873Z" fill="#453D81"/>
<path d="M27.6005 5.74969L26.0542 4.27948C25.2795 3.54291 24.1601 3.29695 23.148 3.64101L17.5929 5.5293C16.1339 6.02524 15.1528 7.3951 15.1528 8.93605V12.3099H28.2413V7.24272C28.2412 6.67828 28.0096 6.13858 27.6005 5.74969Z" fill="#FFD064"/>
<path d="M27.6005 5.74963L26.0542 4.27942C25.2795 3.54285 24.1601 3.29689 23.148 3.64094L21.0385 4.35803C21.6793 4.41211 22.2956 4.68035 22.7781 5.13911L24.3244 6.60931C24.7335 6.99821 24.9651 7.53798 24.9651 8.10242V12.3099H28.2412V7.24266C28.2412 6.67829 28.0096 6.13859 27.6005 5.74963Z" fill="#FFC250"/>
<path d="M27.8239 13.8611C27.1533 15.2851 27.0955 17.1783 27.9375 17.5748C28.7794 17.9713 30.2021 16.7209 30.8727 15.2969C31.5433 13.8729 31.11 13.0225 30.2682 12.626C29.4263 12.2295 28.4946 12.4371 27.8239 13.8611Z" fill="#FFCBBE"/>
<path d="M22.4973 27.2246H20.8964C18.8029 27.2246 17.1058 25.5275 17.1058 23.434V19.3542H26.2879V23.434C26.288 25.5275 24.5909 27.2246 22.4973 27.2246Z" fill="#EAAC9D"/>
<path d="M23.5195 19.3542V23.434C23.5195 25.3289 22.129 26.899 20.3127 27.1798C20.503 27.2092 20.698 27.2246 20.8965 27.2246H22.4974C24.5909 27.2246 26.288 25.5275 26.288 23.434V19.3542H23.5195Z" fill="#DF9380"/>
<path d="M27.0526 10.3218H16.3413C15.6848 10.3218 15.1526 10.854 15.1526 11.5105V15.7419C15.1526 18.0449 16.2991 20.1969 18.2105 21.4816L20.1123 22.76C21.0705 23.404 22.3232 23.404 23.2814 22.76L25.1832 21.4816C27.0946 20.1969 28.2411 18.0449 28.2411 15.7419V11.5105C28.2412 10.854 27.709 10.3218 27.0526 10.3218Z" fill="#FFCBBE"/>
<path d="M26.2957 10.3218V15.7419C26.2957 18.0449 25.1492 20.1968 23.2378 21.4816L21.336 22.7599C21.1426 22.8899 20.9368 22.9923 20.7242 23.0698C21.5647 23.3764 22.5168 23.2739 23.2815 22.7599L25.1833 21.4816C27.0947 20.1968 28.2412 18.0449 28.2412 15.7419V11.5104C28.2412 10.854 27.709 10.3218 27.0525 10.3218H26.2957V10.3218Z" fill="#EAAC9D"/>
<path d="M27.8239 13.8611C27.1533 15.2851 27.0955 17.1783 27.9375 17.5748C28.7794 17.9713 30.2021 16.7209 30.8727 15.2969C31.5433 13.8729 31.11 13.0225 30.2682 12.626C29.4263 12.2295 28.4946 12.4371 27.8239 13.8611Z" fill="#EAAC9D"/>
<path d="M15.5699 13.8611C16.2405 15.2851 16.2983 17.1783 15.4564 17.5748C14.6145 17.9713 13.1918 16.7209 12.5211 15.2969C11.8504 13.8729 12.2838 13.0224 13.1257 12.626C13.9677 12.2294 14.8993 12.4371 15.5699 13.8611Z" fill="#FFCBBE"/>
<path d="M33.8743 5.12565C30.569 1.82034 26.1744 0 21.5 0C16.8256 0 12.431 1.82034 9.12565 5.12565C5.82034 8.43097 4 12.8256 4 17.5C4 18.3571 4.06255 19.2184 4.18594 20.06C4.22736 20.3424 4.48973 20.5378 4.77226 20.4963C5.05465 20.455 5.25002 20.1925 5.20866 19.9101C5.09245 19.1179 5.03359 18.3071 5.03359 17.5C5.03359 8.42037 12.4204 1.03359 21.5 1.03359C30.5796 1.03359 37.9664 8.42037 37.9664 17.5C37.9664 21.2689 36.6927 24.7453 34.5545 27.5236C33.0062 24.6591 30.0714 22.7704 26.8048 22.5683V20.7618C27.4909 20.0117 28.0188 19.1264 28.3516 18.1635C29.4619 18.1137 30.7146 16.8455 31.3402 15.5171C32.054 14.0014 31.7355 12.7458 30.4882 12.1584C29.8876 11.8755 29.2909 11.8593 28.7579 12.0952V7.24274C28.7579 6.54008 28.4658 5.85936 27.9565 5.3751L26.4103 3.90489C25.4933 3.03311 24.1794 2.74449 22.9816 3.15171L17.4265 5.04C15.7573 5.60738 14.6358 7.17309 14.6358 8.93607V12.0956C14.1026 11.8597 13.5057 11.8757 12.9055 12.1583C11.6582 12.7457 11.3397 14.0013 12.0536 15.5171C12.6858 16.8595 13.9316 18.1172 15.0409 18.1644C15.3719 19.1259 15.898 20.011 16.589 20.764V22.553C13.1597 22.6222 10.0609 24.5312 8.44705 27.5198C7.24604 25.9684 6.31246 24.191 5.72847 22.2487C5.6463 21.9754 5.35803 21.8204 5.08473 21.9025C4.81143 21.9847 4.65646 22.2729 4.73862 22.5462C5.42229 24.8201 6.58487 26.9455 8.11612 28.7669C8.95729 29.7721 9.91623 30.6816 10.9648 31.4748C14.0194 33.781 17.6624 35 21.5 35C26.1744 35 30.569 33.1797 33.8743 29.8743C37.1797 26.569 39 22.1744 39 17.5C39 12.8256 37.1797 8.43097 33.8743 5.12565ZM17.6226 21.6972C17.7686 21.8182 19.6208 23.0483 19.8241 23.1889C20.393 23.5712 21.0449 23.7624 21.6969 23.7624C22.3489 23.7624 23.0009 23.5712 23.5698 23.1889C23.7818 23.0424 25.6174 21.8233 25.7712 21.6978V23.4037C25.7712 25.2256 24.2891 26.7078 22.4671 26.7078H20.9267C19.1048 26.7078 17.6226 25.2256 17.6226 23.4037V21.6972ZM17.7592 6.01863L23.3143 4.13034C24.1471 3.84713 25.0606 4.04783 25.6982 4.65404L27.2444 6.12425C27.5495 6.4143 27.7244 6.82199 27.7244 7.24281V9.94328C27.5181 9.85448 27.291 9.80513 27.0526 9.80513H20.2697C19.9843 9.80513 19.7529 10.0365 19.7529 10.3219C19.7529 10.6073 19.9843 10.8387 20.2697 10.8387H27.0526C27.423 10.8387 27.7244 11.1401 27.7244 11.5106V14.2958C27.7244 14.5812 27.9558 14.8126 28.2412 14.8126C28.5266 14.8126 28.758 14.5812 28.758 14.2958V13.3535C29.1364 12.9407 29.5489 12.8584 30.048 13.0935C30.3094 13.2166 31.1049 13.5912 30.4052 15.0767C29.9621 16.0175 29.1982 16.785 28.6434 17.0417C28.6542 16.9812 28.6643 16.9206 28.6736 16.8597C28.7165 16.5775 28.5226 16.314 28.2404 16.2711C27.9577 16.2281 27.6947 16.4221 27.6518 16.7043C27.3832 18.4708 26.3785 20.0557 24.8951 21.0527L22.9932 22.331C22.2058 22.8603 21.1881 22.8603 20.4007 22.331L18.4988 21.0527C16.7271 19.8619 15.6694 17.8766 15.6694 15.7419V11.5104C15.6694 11.14 15.9708 10.8386 16.3413 10.8386H17.8369C18.1223 10.8386 18.3537 10.6072 18.3537 10.3218C18.3537 10.0364 18.1223 9.80499 17.8369 9.80499H16.3413C16.1028 9.80499 15.8757 9.85435 15.6694 9.94314V8.93601C15.6694 7.61592 16.5092 6.44349 17.7592 6.01863ZM12.9886 15.0767C12.2891 13.5911 13.0846 13.2165 13.3459 13.0934C13.8451 12.8583 14.2573 12.9409 14.6359 13.3537V15.7419C14.6359 16.1813 14.6752 16.615 14.7502 17.0394C14.217 16.7949 13.4636 16.0853 12.9886 15.0767ZM21.5 33.9664C16.7068 33.9664 12.235 31.8374 9.16544 28.3841C10.5374 25.5129 13.4045 23.6569 16.5937 23.5864C16.6899 25.8937 18.5962 27.7414 20.9267 27.7414H22.4672C24.7918 27.7414 26.6946 25.9032 26.7998 23.6042C29.8273 23.8127 32.5284 25.6465 33.8383 28.3918C30.8188 31.8081 26.407 33.9664 21.5 33.9664Z" fill="black"/>
<path d="M24.7436 15.2104C25.1805 15.2104 25.5348 14.8561 25.5348 14.4192C25.5348 13.9822 25.1805 13.628 24.7436 13.628C24.3066 13.628 23.9524 13.9822 23.9524 14.4192C23.9524 14.8561 24.3066 15.2104 24.7436 15.2104Z" fill="black"/>
<path d="M19.3971 18.4264C19.9115 19.1723 20.7586 19.6176 21.6631 19.6176C22.5676 19.6176 23.4148 19.1723 23.9292 18.4264C24.0912 18.1915 24.0321 17.8696 23.7971 17.7076C23.5622 17.5456 23.2402 17.6047 23.0783 17.8397C22.7569 18.3058 22.2278 18.584 21.6631 18.584C21.0984 18.584 20.5694 18.3058 20.2479 17.8397C20.0859 17.6047 19.7641 17.5456 19.5291 17.7076C19.2941 17.8697 19.2351 18.1915 19.3971 18.4264Z" fill="black"/>
<path d="M18.5717 15.2104C19.0087 15.2104 19.3629 14.8561 19.3629 14.4192C19.3629 13.9822 19.0087 13.628 18.5717 13.628C18.1347 13.628 17.7805 13.9822 17.7805 14.4192C17.7805 14.8561 18.1347 15.2104 18.5717 15.2104Z" fill="black"/>
</g>
<defs>
<filter id="filter0_d" x="0" y="0" width="43" height="43" filterUnits="userSpaceOnUse" color-interpolation-filters="sRGB">
<feFlood flood-opacity="0" result="BackgroundImageFix"/>
<feColorMatrix in="SourceAlpha" type="matrix" values="0 0 0 0 0 0 0 0 0 0 0 0 0 0 0 0 0 0 127 0"/>
<feOffset dy="4"/>
<feGaussianBlur stdDeviation="2"/>
<feColorMatrix type="matrix" values="0 0 0 0 0 0 0 0 0 0 0 0 0 0 0 0 0 0 0.25 0"/>
<feBlend mode="normal" in2="BackgroundImageFix" result="effect1_dropShadow"/>
<feBlend mode="normal" in="SourceGraphic" in2="effect1_dropShadow" result="shape"/>
</filter>
</defs>
</svg>
